<?xml version="1.0" encoding="utf-8"?>
<!-- Generator: Adobe Illustrator 24.0.3, SVG Export Plug-In . SVG Version: 6.00 Build 0)  -->
<svg version="1.1" id="Capa_1" xmlns="http://www.w3.org/2000/svg" xmlns:xlink="http://www.w3.org/1999/xlink" x="0px" y="0px"
	 viewBox="0 0 80 80" style="enable-background:new 0 0 80 80;" xml:space="preserve">
<style type="text/css">
	.st0{fill:#FFE504;}
	.st1{fill:#221E20;}
	.st2{fill:#E2241C;}
	.st3{fill:#FFE600;}
	.st4{fill:#CC2329;}
</style>
<g>
	<path class="st0" d="M80,40C80,17.9,62.1,0,40,0C17.9,0,0,17.9,0,40c0,22.1,17.9,40,40,40C62.1,80,80,62.1,80,40"/>
	<path class="st1" d="M21.9,37.6c-0.3-1.2-0.8-2.2-1.4-3.1c-0.7-0.9-1.5-1.6-2.6-2.2c-1-0.5-2.3-0.8-3.6-0.8c-1.2,0-2.4,0.2-3.4,0.7
		c-1,0.4-1.9,1-2.6,1.8c-0.7,0.8-1.3,1.7-1.7,2.7c-0.4,1-0.6,2.2-0.6,3.4c0,1.2,0.2,2.4,0.6,3.4c0.4,1,0.9,2,1.7,2.7
		c0.7,0.8,1.6,1.4,2.6,1.8c1,0.4,2.2,0.6,3.4,0.6c1.8,0,3.4-0.4,4.7-1.3c0.7-0.4,1.2-1,1.7-1.7c0.5-0.7,0.9-1.5,1.2-2.5l0.1-0.3
		c0,0,0.1-0.2-0.1-0.2h-4.2c-0.2,0-0.2,0.1-0.2,0.1l0,0.1c-0.1,0.2-0.2,0.4-0.3,0.6c-0.2,0.2-0.4,0.4-0.7,0.6
		c-0.6,0.4-1.2,0.6-2,0.6c-0.6,0-1.1-0.1-1.5-0.2c-0.4-0.1-0.8-0.3-1-0.6c-0.3-0.3-0.5-0.6-0.7-1.1c-0.1-0.4-0.2-0.8-0.3-1.3h11
		c0.2,0,0.2-0.2,0.2-0.2l0-0.1c0-0.3,0-0.5,0-0.8C22.2,39.4,22.1,38.5,21.9,37.6 M11.7,36.6c0.2-0.3,0.5-0.5,1-0.8
		c0.4-0.2,0.9-0.3,1.5-0.3c0.5,0,0.9,0.1,1.2,0.2c0.3,0.1,0.6,0.3,0.8,0.5c0.4,0.4,0.7,1,0.9,1.8H11c0-0.2,0.1-0.4,0.1-0.5
		C11.3,37.2,11.4,36.9,11.7,36.6"/>
	<path class="st1" d="M37.9,48.1l-5.9-8.5l5.3-7.6c0,0,0.1-0.1-0.1-0.1h-5.4c-0.2,0-0.2,0.1-0.2,0.1l-2.4,3.6L26.7,32
		c0,0-0.1-0.1-0.3-0.1h-5.6c-0.2,0-0.1,0.1-0.1,0.1l0.4,0.5l5,7.1l-5.8,8.4c0,0-0.1,0.2,0.1,0.2h5.4c0.2,0,0.3-0.2,0.3-0.2l2.9-4.4
		l2.9,4.4c0,0,0.1,0.2,0.3,0.2h5.5C38,48.3,37.9,48.1,37.9,48.1"/>
	<path class="st1" d="M44.7,31.9h-6.2c-0.2,0-0.2,0.1-0.2,0.1l0.9,16.1c0,0,0,0.2,0.2,0.2h4.4c0.2,0,0.2-0.2,0.2-0.2l0.9-16
		C44.9,32.1,44.9,31.9,44.7,31.9"/>
	<path class="st1" d="M56.6,35.6c0,0,0.2,0,0.2-0.2v-3.3c0,0,0-0.2-0.2-0.2h-3v-4.5c0,0,0-0.2-0.2-0.2h-4.8c-0.2,0-0.2,0.2-0.2,0.2
		v4.5h-2.4c-0.2,0-0.2,0.1-0.2,0.1v3.4c0,0,0,0.2,0.2,0.2h2.4v8.8c0,0.8,0.1,1.5,0.4,2.1c0.3,0.5,0.7,1,1.2,1.3
		c0.5,0.3,1.1,0.5,1.7,0.6c0.6,0.1,1.3,0.1,1.9,0.1c0.4,0,0.9,0,1.3,0c0.5,0,0.9-0.1,1.3-0.1l0.2,0c0,0,0.2,0,0.2-0.2v-3.8
		c0-0.2-0.2-0.1-0.2-0.1l-0.3,0.1c-0.2,0-0.4,0.1-0.6,0.1c-0.2,0-0.4,0-0.7,0c-0.3,0-0.6,0-0.8-0.1c-0.2-0.1-0.3-0.1-0.3-0.2
		c-0.1,0-0.1-0.2-0.2-0.3c-0.1-0.2-0.1-0.5-0.1-0.8v-7.3H56.6z"/>
	<path class="st1" d="M73.4,36.6c-0.4-1.1-1-2-1.7-2.7c-0.7-0.8-1.6-1.3-2.7-1.8c-1-0.4-2.2-0.6-3.5-0.6c-1.3,0-2.4,0.2-3.5,0.6
		c-1,0.4-1.9,1-2.7,1.8c-0.7,0.8-1.3,1.7-1.7,2.7c-0.4,1.1-0.6,2.2-0.6,3.5c0,1.3,0.2,2.5,0.6,3.5c0.4,1.1,1,2,1.7,2.7
		c0.7,0.8,1.6,1.3,2.7,1.7c1,0.4,2.2,0.6,3.5,0.6c1.3,0,2.4-0.2,3.5-0.6c1-0.4,1.9-1,2.7-1.7c0.7-0.8,1.3-1.7,1.7-2.7
		c0.4-1.1,0.6-2.2,0.6-3.5C74,38.9,73.8,37.7,73.4,36.6 M67.1,44.3c-0.4,0.2-0.9,0.4-1.6,0.4c-0.7,0-1.2-0.1-1.6-0.4
		c-0.4-0.2-0.8-0.6-1-1c-0.3-0.4-0.5-0.9-0.6-1.5c-0.1-0.6-0.2-1.1-0.2-1.7c0-0.6,0.1-1.2,0.2-1.8c0.1-0.6,0.3-1,0.6-1.5
		c0.3-0.4,0.6-0.7,1-1c0.4-0.2,0.9-0.4,1.6-0.4c0.7,0,1.2,0.1,1.6,0.4c0.4,0.3,0.8,0.6,1,1c0.3,0.4,0.5,0.9,0.6,1.5
		c0.1,0.6,0.2,1.2,0.2,1.8c0,0.6-0.1,1.2-0.2,1.7c-0.1,0.5-0.3,1-0.6,1.5C67.9,43.8,67.5,44.1,67.1,44.3"/>
	<path class="st2" d="M44.6,52.2c0-1.7-1.4-3.1-3.1-3.1c-1.7,0-3.1,1.4-3.1,3.1c0,1.7,1.4,3.1,3.1,3.1
		C43.2,55.3,44.6,53.9,44.6,52.2"/>
	<path d="M14.9,27.4l-2.4,3c0,0-0.1,0.2,0,0.2h2.8c0.2,0,0.4-0.1,0.4-0.1l4-3.1c0,0,0.1-0.1,0-0.1h-4.5C15,27.2,14.9,27.4,14.9,27.4
		"/>
	<path class="st1" d="M78,33.5c0,0.4-0.1,0.7-0.3,1c-0.2,0.3-0.4,0.6-0.7,0.7c-0.3,0.2-0.6,0.3-1,0.3c-0.4,0-0.7-0.1-1-0.3
		c-0.3-0.2-0.6-0.4-0.7-0.7c-0.2-0.3-0.3-0.6-0.3-1c0-0.4,0.1-0.7,0.3-1c0.2-0.3,0.4-0.6,0.7-0.7c0.3-0.2,0.6-0.3,1-0.3
		c0.4,0,0.7,0.1,1,0.3c0.3,0.2,0.6,0.4,0.7,0.7C77.9,32.8,78,33.2,78,33.5 M77.6,33.5c0-0.4-0.2-0.8-0.5-1.1
		c-0.3-0.3-0.7-0.5-1.1-0.5c-0.4,0-0.8,0.2-1.1,0.5c-0.3,0.3-0.5,0.7-0.5,1.1c0,0.4,0.2,0.8,0.5,1.1c0.3,0.3,0.7,0.5,1.1,0.5
		c0.4,0,0.8-0.2,1.1-0.5C77.4,34.4,77.6,34,77.6,33.5 M75,32.5h1c0.3,0,0.5,0.1,0.6,0.2c0.1,0.1,0.2,0.3,0.2,0.4
		c0,0.1,0,0.3-0.1,0.4c-0.1,0.1-0.2,0.2-0.4,0.2c0.1,0,0.1,0.1,0.2,0.1c0.1,0.1,0.1,0.1,0.2,0.2c0,0,0.1,0.2,0.3,0.6h-0.6
		c-0.2-0.4-0.3-0.7-0.4-0.7c-0.1-0.1-0.1-0.1-0.2-0.1c0,0,0,0-0.1,0v0.8H75V32.5z M75.6,33.4h0.2c0.2,0,0.3,0,0.3-0.1
		c0.1,0,0.1-0.1,0.1-0.2c0-0.1,0-0.1-0.1-0.2c-0.1-0.1-0.2-0.1-0.3-0.1h-0.3V33.4z"/>
</g>
</svg>
