<?xml version="1.0" encoding="utf-8"?>
<!-- Generator: Adobe Illustrator 24.0.1, SVG Export Plug-In . SVG Version: 6.00 Build 0)  -->
<svg version="1.1" id="Capa_1" xmlns="http://www.w3.org/2000/svg" xmlns:xlink="http://www.w3.org/1999/xlink" x="0px" y="0px"
	 viewBox="0 0 258 185" style="enable-background:new 0 0 258 185;" xml:space="preserve">
<style type="text/css">
	.st0{fill:#D31146;}
</style>
<g id="Grupo_56" transform="translate(-15.054 -111.101)">
	<g id="Grupo_55" transform="translate(15.054 111.101)">
		<path id="Trazado_102" class="st0" d="M92.84,115.26c0.85-0.15,1.71-0.23,2.57-0.26c1.06,0.01,2.11,0.15,3.14,0.41
			c2.46,0.6,4.14,2.87,3.99,5.39c0.03,1.78-0.19,3.57-0.27,5.35c-0.1,2.33-0.19,4.67-0.24,7c0.01,0.45,0.11,0.89,0.29,1.31
			c0.12,0.47,0.59,0.75,1.06,0.64c0.1-0.02,0.19-0.06,0.27-0.12c0.57-0.3,1.09-0.68,1.54-1.14c1.97-2.18,3.61-4.64,4.87-7.29
			c0.2-0.51,0.36-1.03,0.48-1.56c1.11-3.33,3.3-6.2,6.22-8.15c2.8-1.97,6.44-2.27,9.51-0.78c3.26,1.25,5.15,4.65,4.51,8.07
			c-0.08,0.65-0.22,1.3-0.43,1.93c-0.59,1.81-2.39,2.93-4.28,2.67c-0.4-0.04-0.79-0.12-1.23-0.18c0.13-0.67,0.25-1.27,0.36-1.89
			c0.35-1.66,0.43-3.36,0.25-5.05c-0.02-0.16-0.06-0.32-0.1-0.47c-0.1-1.01-0.99-1.74-2-1.65c-0.4,0.04-0.78,0.21-1.07,0.49
			c-1.05,0.79-1.86,1.86-2.33,3.09c-1,2.28-1.55,4.72-1.62,7.21c-0.13,1.84,0.14,3.68,0.79,5.4c0.65,2.12,2.74,3.44,4.93,3.13
			c1.02-0.11,2.02-0.39,2.96-0.81c2.1-1.04,3.92-2.58,5.3-4.48c2.3-3.05,4.23-6.37,5.74-9.88c0.45-1.22,0.7-2.51,0.73-3.81
			c0.31-2.64,0.54-5.29,0.85-7.93c0.5-3.14,0.37-6.35-0.36-9.45c-0.21-0.75-0.55-1.47-0.86-2.3c0.51-0.52,1.17-0.86,1.88-0.99
			c2.51-0.68,5.2,0,7.08,1.79c1.13,1.2,1.79,2.76,1.87,4.4c0.09,1.93-0.02,3.87-0.35,5.78c-0.27,2.54-0.59,5.08-0.9,7.74
			c0.18-0.13,0.29-0.2,0.38-0.28c1.87-1.65,4.11-2.82,6.54-3.4c1.9-0.47,3.89-0.29,5.68,0.49c2.54,1.17,3.67,3.35,4.13,5.98
			c0.21,1.89,0.13,3.8-0.23,5.67c-0.3,2.43-0.57,4.86-0.8,7.29c-0.02,0.5,0.05,1,0.2,1.47c0.21,0.74,0.76,0.96,1.36,0.47
			c0.71-0.58,1.36-1.22,1.94-1.93c2.17-2.84,4.12-5.86,5.81-9.01c0.73-1.29,1.27-2.68,2.02-3.95c1.32-2.23,3.23-4.07,5.51-5.3
			c3.63-2,7.11-1.46,10.45,0.68c1.37,0.87,2.31,2.29,2.57,3.9c0.87,4.87-0.85,10.12-6.81,12.09c-1.71,0.54-3.48,0.82-5.27,0.84
			c-0.11,0-0.22,0-0.34,0c0.48,2.37,2.24,4.26,4.57,4.91c1.35,0.2,2.73-0.03,3.94-0.66c1.93-0.96,3.61-2.35,4.93-4.05
			c2.19-2.79,4.16-5.75,5.89-8.84c1.71-2.82,3.44-5.64,5.27-8.39c0.75-1.03,1.6-1.98,2.54-2.84c1.53-1.45,3.66-2.06,5.73-1.64
			c1.16,0.08,2.29,0.42,3.3,0.99c1.15,0.66,1.67,2.05,1.23,3.3c-0.43-0.1-0.86-0.24-1.29-0.31c-1.05-0.26-2.11,0.38-2.37,1.43
			c0,0.01-0.01,0.02-0.01,0.04c-0.33,1.37-0.29,2.81,0.13,4.15c0.61,2.01,1.54,3.9,2.76,5.61c0.88,1.35,1.76,2.7,2.57,4.09
			c2.2,4.27,0.51,9.52-3.76,11.71c-0.68,0.35-1.39,0.6-2.14,0.76c-2.79,0.6-5.7,0.11-8.15-1.36c-1.89-1.01-3-3.06-2.8-5.2
			c-0.04-1.77,0.74-3.46,2.11-4.58c0.62-0.5,1.35-0.83,2.12-0.97c0.08,0.67,0.21,1.33,0.39,1.98c0.23,0.68,0.57,1.32,1.02,1.89
			c0.71,0.89,2,1.03,2.89,0.33c0.16-0.13,0.3-0.27,0.41-0.44c0.81-0.99,1.04-2.32,0.62-3.52c-0.41-1.2-0.89-2.38-1.43-3.52
			c-1.14-2.35-1.94-4.85-2.4-7.42c-0.07-0.45-0.08-0.91-0.13-1.53c-0.43,0.61-0.79,1.09-1.13,1.59c-1.59,2.43-3,4.96-4.24,7.59
			c-1.58,3.34-3.63,6.44-6.1,9.19c-2.48,2.86-5.85,4.82-9.56,5.56c-2.77,0.55-5.62,0.39-8.31-0.46c-3.59-1.12-6.25-4.16-6.88-7.86
			c-0.04-0.17-0.08-0.33-0.13-0.55c-0.7,0.92-1.34,1.81-2.04,2.65c-1.71,2.2-3.84,4.03-6.27,5.39c-1.4,0.81-3.03,1.11-4.62,0.85
			c-2.08-0.39-3.72-1.99-4.15-4.06c-0.62-2.08-0.78-4.26-0.47-6.41c0.47-3.01,0.67-6.06,0.6-9.11c-0.05-0.93-0.21-1.85-0.47-2.75
			c-0.37-1.23-1.13-1.53-2.32-1.04c-1.14,0.51-2.14,1.29-2.9,2.28c-1,1.2-1.94,2.45-2.82,3.74c-0.22,0.46-0.33,0.97-0.32,1.48
			c-0.17,2.12-0.4,4.24-0.43,6.36c-0.04,2.06,0.69,4.05,2.06,5.59c0.3,0.34,0.56,0.71,0.91,1.17c-0.34,0.64-0.83,1.18-1.42,1.6
			c-1.93,1.46-4.45,1.88-6.75,1.12c-1.72-0.56-2.97-2.06-3.21-3.86c-0.25-1.36-0.42-2.73-0.53-4.11c-0.06-0.52-0.05-1.05-0.08-1.68
			c-0.52,0.71-0.95,1.34-1.42,1.94c-1.91,2.61-4.39,4.76-7.26,6.27c-2.34,1.18-4.96,1.7-7.58,1.52c-1.47-0.05-2.92-0.28-4.33-0.67
			c-3.35-0.92-5.9-3.65-6.6-7.05c-0.04-0.17-0.08-0.35-0.12-0.52c-0.04-0.15-0.08-0.3-0.14-0.55l-0.6,0.81
			c-1.65,2.36-3.64,4.45-5.92,6.2c-1.14,0.92-2.49,1.51-3.94,1.73c-2.9,0.51-5.7-1.32-6.4-4.18c-0.4-1.33-0.61-2.71-0.61-4.09
			c0-0.15-0.02-0.31-0.04-0.6c-0.33,0.42-0.58,0.74-0.83,1.07c-1.62,2.17-3.51,4.14-5.62,5.84c-1.2,1.1-2.71,1.79-4.33,1.99
			c-2.87,0.13-5.62-0.29-7.77-2.45c-1.27-1.32-2.01-3.05-2.09-4.88c-0.13-1.68-0.08-3.38-0.12-5.08c0.01-1.66-0.24-3.31-0.73-4.9
			c-0.73-2.41-2.87-4.12-5.38-4.29c-1.37-0.16-2.77-0.13-4.15-0.21c-0.85-0.04-1.7-0.12-2.59-0.18c-0.17,1.19-0.33,2.37-0.5,3.54
			c-0.34,2.15-0.47,4.33-0.39,6.51c0,2.24,0.39,4.47,1.15,6.58c0.33,1.03,1.02,1.91,1.94,2.49c-0.49,0.81-1.22,1.44-2.09,1.81
			c-2.43,1.19-5.2,1.47-7.82,0.79c-2.46-0.64-3.79-2.47-4.5-4.82c-0.49-1.78-0.61-3.64-0.35-5.46c0.33-2.85,0.71-5.69,1.13-8.52
			c0.25-1.7,0.62-3.39,0.97-5.07c0.13-0.31-0.02-0.66-0.32-0.79c-0.01,0-0.02-0.01-0.02-0.01c-1.22-0.57-2.11-1.66-2.43-2.97
			c-0.45-1.56,0.01-3.24,1.18-4.36l2.55,2.28l0.16-0.08c0.72-5.36,0.74-10.79,0.08-16.15c-0.87,0.57-1.64,1.03-2.36,1.55
			c-3.41,2.34-5.85,5.86-6.83,9.88c-0.89,3.13-0.74,6.46,0.43,9.49c0.26,0.61,0.58,1.18,0.97,1.72c0.4,0.5,0.83,0.99,1.28,1.44
			c-1.79,2.73-5.11,4.91-9.34,3.39c-3.15-1.09-5.47-3.8-6.06-7.09c-1.34-5.78,0.03-11.01,3.38-15.8c3.04-4.23,7.06-7.67,11.71-10.03
			c4.29-2.24,8.9-3.79,13.67-4.6c3-0.51,6.04-0.81,9.08-0.9c5.42-0.24,10.77,1.32,15.21,4.44c2.82,1.8,4.9,4.55,5.86,7.76
			c2.01,6.86-0.96,14.21-7.17,17.74c-1.92,1.12-4.02,1.91-6.21,2.33c-0.12,0.03-0.24,0.06-0.36,0.1c0.85,0.15,1.7,0.26,2.53,0.47
			c3.38,0.79,5.81,3.72,5.97,7.19c0.19,1.94,0.06,3.9,0.14,5.85c0.04,0.9,0.17,1.79,0.39,2.67c0.29,1.17,0.91,1.44,2.03,0.98
			c1.33-0.64,2.51-1.55,3.45-2.68c2.23-2.42,4.22-5.05,5.94-7.86c0.21-0.38,0.33-0.8,0.35-1.23c0.27-2.54,0.15-5.1-0.36-7.6
			c-0.06-0.25-0.14-0.5-0.23-0.74C93.09,115.84,92.99,115.61,92.84,115.26z M60.48,94.13c0.15,1.01,0.31,1.87,0.38,2.73
			c0.26,2.52,0.29,5.05,0.11,7.58c-0.25,2.84-0.54,5.67-0.84,8.51c-0.13,1.29-0.31,2.58-0.47,3.88c0.07,0.02,0.14,0.04,0.22,0.05
			c2.88,0.22,5.78-0.18,8.5-1.16c3.53-1.2,6.26-4.06,7.28-7.65c0.59-2.22,0.8-4.51,0.63-6.8c-0.02-3.18-2.21-5.94-5.31-6.68
			c-1.8-0.5-3.67-0.73-5.54-0.69C63.8,93.93,62.16,94.05,60.48,94.13L60.48,94.13z M181.2,130.13c0.09,0,0.17,0,0.26,0
			c3.66-0.41,6.55-3.29,6.99-6.95c0.19-0.99,0-2.02-0.53-2.88c-0.37-0.69-1.22-0.95-1.91-0.59c-0.03,0.02-0.07,0.04-0.1,0.06
			c-0.36,0.19-0.69,0.41-1,0.67c-1.36,1.2-2.36,2.75-2.9,4.48C181.44,126.59,181.17,128.36,181.2,130.13L181.2,130.13z"/>
		<path id="Trazado_103" class="st0" d="M134.04,36.26c0.45,0.22,0.88,0.42,1.31,0.65c1.36,0.7,2.62,1.6,3.72,2.67
			c1.97,1.77,2.65,4.57,1.71,7.04c-1,3.08-3.4,5.5-6.46,6.54c-2.41,0.89-4.99,1.24-7.55,1.02c-1.58-0.1-3.16-0.13-4.73-0.24
			c-2.54-0.17-5.08-0.36-7.62-0.56c-1.33-0.1-2.66-0.23-3.95-0.34c0,0.86-0.02,1.7,0,2.52c0.05,1.68,0.21,3.35,0.16,5.02
			c-0.09,3.22-0.28,6.43-0.47,9.65c-0.19,3.27-0.41,6.53-0.63,9.79c-0.18,2.37,0.2,4.75,1.1,6.95c0.4,1.23,1.26,2.25,2.41,2.84
			c-0.52,1.25-1.41,2.31-2.57,3.03c-3.69,2.37-8.6,1.3-10.97-2.39c-0.43-0.67-0.75-1.39-0.97-2.16c-0.49-1.65-0.76-3.37-0.8-5.09
			c-0.04-2.64,0.12-5.28,0.48-7.9c0.26-2.34,0.47-4.68,0.59-7.03c0.16-3.22,0.26-6.44,0.3-9.66c0.02-1.62-0.15-3.25-0.28-4.87
			c-0.05-0.7-0.1-0.71-0.8-0.68c-2.89,0.07-5.73,0.8-8.3,2.13c-3.09,1.53-4.91,4.81-4.58,8.24c0.08,2.89,1.39,5.61,3.59,7.49
			c0.23,0.2,0.21,0.34,0.07,0.57c-1.17,1.92-3.16,3.19-5.4,3.44c-3.6,0.52-6.19-1.14-8.23-3.89c-1.89-2.54-2.66-5.74-2.14-8.87
			c0.33-3.2,1.76-6.19,4.05-8.46c2.02-1.89,4.42-3.33,7.03-4.22c3.25-1.15,6.63-1.9,10.06-2.24c3.38-0.35,6.78-0.52,10.18-0.51
			c3.14-0.03,6.29-0.1,9.42-0.28c3.95-0.15,7.86-0.83,11.63-2.01c2.19-0.65,4.2-1.78,5.9-3.3c1.3-1.2,2.21-2.77,2.59-4.49
			C133.93,36.56,133.98,36.44,134.04,36.26z"/>
		<path id="Trazado_104" class="st0" d="M144.89,83.43c0.48,1.68,1.49,3.16,2.88,4.21c1.65,1.13,3.4,0.9,5.14,0.26
			c1.89-0.78,3.56-2,4.86-3.57c2.13-2.49,4.01-5.18,5.61-8.03c1.85-3.06,3.69-6.12,5.6-9.15c0.9-1.44,2.03-2.72,3.34-3.8
			c1.26-1.11,2.93-1.65,4.6-1.49c1.24,0.05,2.46,0.29,3.62,0.73c1.38,0.49,2.2,1.92,1.91,3.36c-0.02,0.09-0.05,0.18-0.09,0.27
			c-0.39-0.1-0.76-0.22-1.13-0.3c-1.09-0.33-2.24,0.28-2.57,1.37c-0.04,0.13-0.07,0.27-0.08,0.41c-0.21,1.29-0.13,2.62,0.24,3.87
			c0.61,1.97,1.53,3.83,2.73,5.51c0.84,1.3,1.68,2.6,2.48,3.92c2.3,4.23,0.73,9.52-3.5,11.82c-0.63,0.34-1.29,0.6-1.98,0.78
			c-3.01,0.76-6.21,0.22-8.8-1.5c-1.73-1.06-2.68-3.02-2.46-5.04c-0.05-1.79,0.77-3.49,2.2-4.58c0.65-0.4,1.33-0.76,2.03-1.07
			c0.06,0.6,0.16,1.19,0.3,1.78c0.18,0.65,0.44,1.27,0.79,1.85c0.58,1.06,1.91,1.46,2.97,0.88c0.44-0.24,0.78-0.62,0.98-1.08
			c0.56-1.05,0.65-2.3,0.22-3.42c-0.36-0.98-0.76-1.94-1.22-2.88c-1.09-2.23-1.9-4.58-2.42-7.01c-0.13-0.67-0.18-1.36-0.29-2.18
			c-0.56,0.82-1.12,1.51-1.55,2.28c-1.37,2.44-2.71,4.9-4.02,7.38c-1.58,3.2-3.59,6.16-5.98,8.81c-2.38,2.69-5.54,4.56-9.05,5.35
			c-3.24,0.75-6.64,0.48-9.72-0.77c-2.83-1.14-4.92-3.59-5.6-6.56c-1.36-5.37-0.86-10.54,2.29-15.24c1.71-2.87,4.51-4.92,7.76-5.7
			c3.27-0.78,6.69,0.27,8.97,2.74c0.96,1.05,1.52,2.4,1.59,3.81c0.29,2.5-0.28,5.03-1.61,7.17c-1.5,2.2-3.81,3.72-6.43,4.21
			c-1.37,0.25-2.76,0.43-4.15,0.53C145.22,83.41,145.09,83.42,144.89,83.43z M144.96,79.68c3.64-0.28,6.62-3.02,7.22-6.62
			c0.2-0.98,0.09-2.01-0.32-2.93c-0.24-0.78-1.07-1.22-1.85-0.98c-0.18,0.05-0.34,0.14-0.49,0.26c-0.7,0.46-1.33,1.02-1.87,1.65
			c-1.49,1.88-2.38,4.16-2.56,6.55C145.02,78.29,145.01,78.98,144.96,79.68L144.96,79.68z"/>
		<path id="Trazado_105" class="st0" d="M117.36,66.31c0.81-0.23,1.63-0.39,2.47-0.49c1.24-0.08,2.48-0.02,3.7,0.17
			c1.92,0.23,3.42,1.78,3.59,3.71c0.03,0.12,0.06,0.25,0.1,0.37c0.31-0.85,0.57-1.62,0.86-2.38c1.13-3.18,2.7-6.18,4.66-8.92
			c0.8-1.12,1.8-2.07,2.95-2.83c1.44-0.93,3.23-1.11,4.82-0.49c1.08,0.39,1.94,1.22,2.36,2.29c0.58,1.5,0.81,3.12,0.68,4.72
			c-0.43-0.07-0.82-0.15-1.21-0.18c-1.53-0.05-3.03,0.41-4.27,1.31c-5.36,3.24-9.12,8.57-10.37,14.71c-0.42,2.3-0.54,4.65-0.35,6.98
			c0.03,1.68,0.27,3.34,0.69,4.96c0.14,0.45,0.32,0.87,0.55,1.28c0.14,0.18,0.12,0.44-0.05,0.59c-0.66,0.76-1.54,1.3-2.52,1.54
			c-1.27,0.41-2.62,0.45-3.91,0.13c-1.8-0.59-3.19-2.03-3.72-3.84c-0.34-0.93-0.45-1.92-0.34-2.9c0.14-1.72,0.23-3.44,0.3-5.16
			c0.12-3.14,0.27-6.28,0.29-9.42c-0.03-1.3-0.19-2.6-0.46-3.87C117.97,67.8,117.7,67.04,117.36,66.31z"/>
		<path id="Trazado_106" class="st0" d="M109.18,104.42c-1.77-0.09-3.46,0.75-4.47,2.21c-0.69,1.01-1.49,1.94-2.37,2.78
			c-2.59,2.35-7.95,0.88-8.66-3.3c-0.48-3.22,1.74-6.22,4.97-6.7c0.21-0.03,0.43-0.05,0.65-0.06c2.72-0.08,5.37,0.86,7.43,2.64
			c0.9,0.71,1.72,1.53,2.58,2.3L109.18,104.42z"/>
	</g>
</g>
</svg>
