<?xml version="1.0" encoding="utf-8"?>
<!-- Generator: Adobe Illustrator 24.1.3, SVG Export Plug-In . SVG Version: 6.00 Build 0)  -->
<svg version="1.1" id="Capa_1" xmlns="http://www.w3.org/2000/svg" xmlns:xlink="http://www.w3.org/1999/xlink" x="0px" y="0px"
	 viewBox="0 0 20 20" style="enable-background:new 0 0 20 20;" xml:space="preserve">
<style type="text/css">
	.st0{fill:#FFE504;}
	.st1{fill:#221E20;}
	.st2{fill:#E2241C;}
</style>
<g>
	<path class="st0" d="M19.7,10c0-5.4-4.3-9.7-9.7-9.7S0.3,4.6,0.3,10s4.3,9.7,9.7,9.7S19.7,15.4,19.7,10"/>
	<path class="st1" d="M5.6,9.4C5.5,9.1,5.4,8.9,5.3,8.7C5.1,8.4,4.9,8.3,4.6,8.1C4.4,8,4.1,7.9,3.8,7.9c-0.3,0-0.6,0-0.8,0.2
		C2.7,8.2,2.5,8.3,2.3,8.5S2,9,1.9,9.2C1.8,9.4,1.7,9.7,1.7,10c0,0.3,0,0.6,0.1,0.8s0.2,0.5,0.4,0.7c0.2,0.2,0.4,0.3,0.6,0.4
		c0.2,0.1,0.5,0.1,0.8,0.1c0.4,0,0.8-0.1,1.1-0.3c0.2-0.1,0.3-0.2,0.4-0.4c0.1-0.2,0.2-0.4,0.3-0.6l0-0.1c0,0,0,0,0,0h-1
		c0,0,0,0,0,0v0c0,0,0,0.1-0.1,0.1c0,0-0.1,0.1-0.2,0.1c-0.1,0.1-0.3,0.1-0.5,0.1c-0.1,0-0.3,0-0.4,0S3.2,11,3.2,10.9
		c-0.1-0.1-0.1-0.1-0.2-0.3c0-0.1,0-0.2-0.1-0.3h2.7c0,0,0,0,0,0v0c0-0.1,0-0.1,0-0.2C5.7,9.9,5.7,9.6,5.6,9.4 M3.1,9.2
		c0-0.1,0.1-0.1,0.2-0.2c0.1,0,0.2-0.1,0.4-0.1c0.1,0,0.2,0,0.3,0C4.1,9,4.2,9,4.2,9.1c0.1,0.1,0.2,0.2,0.2,0.4H3c0,0,0-0.1,0-0.1
		C3,9.3,3.1,9.2,3.1,9.2"/>
	<path class="st1" d="M9.5,12L8.1,9.9l1.3-1.8c0,0,0,0,0,0H8c0,0,0,0,0,0L7.4,8.9L6.8,8.1c0,0,0,0-0.1,0H5.3c0,0,0,0,0,0l0.1,0.1
		l1.2,1.7l-1.4,2c0,0,0,0,0,0h1.3c0,0,0.1,0,0.1,0l0.7-1.1L8,11.9c0,0,0,0,0.1,0L9.5,12C9.5,12,9.5,12,9.5,12"/>
	<path class="st1" d="M11.1,8H9.6c0,0,0,0,0,0L9.8,12c0,0,0,0,0,0h1.1c0,0,0,0,0,0L11.1,8C11.2,8.1,11.2,8,11.1,8"/>
	<path class="st1" d="M14,8.9C14,8.9,14.1,8.9,14,8.9l0-0.8c0,0,0,0,0,0h-0.7V6.9c0,0,0,0,0,0h-1.2c0,0,0,0,0,0V8h-0.6c0,0,0,0,0,0
		v0.8c0,0,0,0,0,0H12v2.1c0,0.2,0,0.4,0.1,0.5c0.1,0.1,0.2,0.2,0.3,0.3c0.1,0.1,0.3,0.1,0.4,0.1c0.1,0,0.3,0,0.5,0
		c0.1,0,0.2,0,0.3,0c0.1,0,0.2,0,0.3,0h0c0,0,0,0,0,0v-0.9c0,0,0,0,0,0l-0.1,0c0,0-0.1,0-0.1,0c0,0-0.1,0-0.2,0c-0.1,0-0.1,0-0.2,0
		c0,0-0.1,0-0.1,0c0,0,0,0,0-0.1c0,0,0-0.1,0-0.2V9L14,8.9L14,8.9z"/>
	<path class="st1" d="M18.1,9.2c-0.1-0.3-0.2-0.5-0.4-0.7c-0.2-0.2-0.4-0.3-0.7-0.4c-0.2-0.1-0.5-0.1-0.8-0.1c-0.3,0-0.6,0-0.8,0.1
		c-0.2,0.1-0.5,0.2-0.7,0.4c-0.2,0.2-0.3,0.4-0.4,0.7c-0.1,0.3-0.1,0.5-0.1,0.8c0,0.3,0,0.6,0.1,0.8c0.1,0.3,0.2,0.5,0.4,0.7
		c0.2,0.2,0.4,0.3,0.7,0.4c0.2,0.1,0.5,0.1,0.8,0.1c0.3,0,0.6,0,0.8-0.1c0.2-0.1,0.5-0.2,0.7-0.4c0.2-0.2,0.3-0.4,0.4-0.7
		c0.1-0.3,0.1-0.5,0.1-0.8C18.3,9.7,18.2,9.4,18.1,9.2 M16.6,11c-0.1,0-0.2,0.1-0.4,0.1c-0.2,0-0.3,0-0.4-0.1
		c-0.1,0-0.2-0.1-0.2-0.2c-0.1-0.1-0.1-0.2-0.1-0.4s0-0.3,0-0.4s0-0.3,0-0.4c0-0.1,0.1-0.2,0.1-0.4c0.1-0.1,0.1-0.2,0.2-0.2
		c0.1,0,0.2-0.1,0.4-0.1c0.2,0,0.3,0,0.4,0.1c0.1,0.1,0.2,0.1,0.2,0.2c0.1,0.1,0.1,0.2,0.1,0.4s0,0.3,0,0.4c0,0.1,0,0.3,0,0.4
		c0,0.1-0.1,0.2-0.1,0.4C16.8,10.9,16.7,11,16.6,11"/>
	<path class="st2" d="M11.1,13c0-0.4-0.3-0.8-0.8-0.8c-0.4,0-0.8,0.3-0.8,0.8c0,0.4,0.3,0.8,0.8,0.8S11.1,13.4,11.1,13"/>
	<path d="M3.9,6.9L3.3,7.7c0,0,0,0,0,0H4c0,0,0.1,0,0.1,0l1-0.8c0,0,0,0,0,0L3.9,6.9C3.9,6.9,3.9,6.9,3.9,6.9"/>
	<path class="st1" d="M19.2,8.4c0,0.1,0,0.2-0.1,0.2c0,0.1-0.1,0.1-0.2,0.2c-0.1,0-0.1,0.1-0.2,0.1s-0.2,0-0.2-0.1
		c-0.1,0-0.1-0.1-0.2-0.2c0-0.1-0.1-0.1-0.1-0.2s0-0.2,0.1-0.2c0-0.1,0.1-0.1,0.2-0.2c0.1,0,0.1-0.1,0.2-0.1S18.9,8,19,8
		c0.1,0,0.1,0.1,0.2,0.2C19.2,8.3,19.2,8.3,19.2,8.4 M19.1,8.4c0-0.1,0-0.2-0.1-0.3C18.9,8.1,18.8,8,18.7,8s-0.2,0-0.3,0.1
		c-0.1,0.1-0.1,0.2-0.1,0.3c0,0.1,0,0.2,0.1,0.3c0.1,0.1,0.2,0.1,0.3,0.1s0.2,0,0.3-0.1C19.1,8.6,19.1,8.5,19.1,8.4 M18.5,8.2h0.2
		c0.1,0,0.1,0,0.1,0c0,0,0,0.1,0,0.1c0,0,0,0.1,0,0.1c0,0,0,0-0.1,0c0,0,0,0,0,0c0,0,0,0,0,0c0,0,0,0,0.1,0.1h-0.1
		c0-0.1-0.1-0.2-0.1-0.2c0,0,0,0,0,0c0,0,0,0,0,0v0.2h-0.2V8.2z M18.6,8.4L18.6,8.4c0.1,0,0.1,0,0.1,0c0,0,0,0,0,0s0,0,0,0
		s0,0-0.1,0h-0.1L18.6,8.4L18.6,8.4z"/>
</g>
</svg>
