<?xml version="1.0" encoding="utf-8"?>
<!-- Generator: Adobe Illustrator 24.0.1, SVG Export Plug-In . SVG Version: 6.00 Build 0)  -->
<svg version="1.1" id="Capa_1" xmlns="http://www.w3.org/2000/svg" xmlns:xlink="http://www.w3.org/1999/xlink" x="0px" y="0px"
	 viewBox="0 0 143 109" style="enable-background:new 0 0 143 109;" xml:space="preserve">
<style type="text/css">
	.st0{clip-path:url(#SVGID_2_);}
	.st1{clip-path:url(#SVGID_4_);}
	.st2{fill-rule:evenodd;clip-rule:evenodd;fill:#C10230;}
	.st3{fill-rule:evenodd;clip-rule:evenodd;fill:#FFFFFF;}
</style>
<g id="Grupo_5" transform="translate(-42.938 -4.978)">
	<g id="Grupo_4">
		<g>
			<defs>
				<rect id="SVGID_1_" x="43.41" y="4.59" width="142.06" height="109.78"/>
			</defs>
			<clipPath id="SVGID_2_">
				<use xlink:href="#SVGID_1_"  style="overflow:visible;"/>
			</clipPath>
			<g id="Grupo_3" class="st0">
				<g id="Grupo_2">
					<g>
						<defs>
							<rect id="SVGID_3_" x="43.41" y="4.59" width="142.06" height="109.78"/>
						</defs>
						<clipPath id="SVGID_4_">
							<use xlink:href="#SVGID_3_"  style="overflow:visible;"/>
						</clipPath>
						<g id="Grupo_1" class="st1">
							<path id="Trazado_1" class="st2" d="M167.61,85.54h0.71c0.42,0,0.89,0.08,0.89,0.61c0,0.58-0.42,0.65-0.89,0.65h-0.71V85.54z
								 M166.8,89.32h0.81v-1.89h0.48l1.12,1.89h0.82l-1.16-1.92c0.61,0.02,1.11-0.46,1.13-1.07c0-0.04,0-0.09,0-0.13
								c0-0.93-0.56-1.28-1.6-1.28h-1.6L166.8,89.32z M168.27,90.26c-1.73,0.14-3.24-1.15-3.38-2.88s1.15-3.24,2.88-3.38
								c1.73-0.14,3.24,1.15,3.38,2.88c0.01,0.08,0.01,0.16,0.01,0.24c0.1,1.63-1.15,3.03-2.78,3.13
								C168.35,90.26,168.31,90.26,168.27,90.26 M168.27,91.02c2.15,0.04,3.92-1.67,3.95-3.82s-1.67-3.92-3.82-3.95
								c-2.15-0.04-3.92,1.67-3.95,3.82c0,0.02,0,0.04,0,0.07C164.44,89.25,166.14,90.99,168.27,91.02"/>
							<path id="Trazado_2" class="st3" d="M54.88,37.16c0,0,56.67-19.1,119.2-0.23v40.99c0,0-52.07,17.64-119.2,0L54.88,37.16z"/>
							<path id="Trazado_3" class="st2" d="M57.25,38.51c0,0,54.34-17.58,114.3-0.2v37.72c0,0-49.93,16.23-114.3,0L57.25,38.51z"/>
							<path id="Trazado_4" class="st3" d="M119.11,69.54c0.8,0.11,1.6-0.17,2.16-0.74c0.48-0.61,0.35-1.22,0.35-2.95V48.14
								c0-1.57,0.04-2.44-0.39-2.88c-0.68-0.49-1.53-0.66-2.34-0.47v-1.08h10.71v0.76c-1.41,0.11-2.22,0.26-2.64,0.7
								c-0.54,0.85-0.77,1.86-0.64,2.85v7.49h11.17v-7.32c0-1.46,0.09-1.95-0.44-2.76c-0.49-0.76-1.73-0.69-2.55-0.71v-1.01h10.71
								l-0.03,0.95c-1.74,0-1.97,0.11-2.59,0.61c-0.48,0.86-0.67,1.84-0.56,2.81v18.11c0,1.5,0.15,2.21,0.56,2.63
								c0.76,0.54,1.68,0.83,2.61,0.81v1.15h-10.7v-1.23c0.89,0.22,1.83,0.01,2.54-0.57c0.38-0.43,0.45-1.14,0.45-3.07v-7.95H126.3
								v8.26c0,1.49,0.21,2.29,0.63,2.71s1.24,0.47,2.66,0.58v1.25l-10.48-0.1L119.11,69.54z M150.89,61.16
								c0.3,2.07,0.53,4.23,1.44,5.3c1.29,1.71,3.33,2.67,5.47,2.57c1.25,0.01,2.47-0.43,3.43-1.24c0.89-0.78,1.35-1.95,1.22-3.13
								c0.01-1.27-0.49-2.49-1.39-3.38c-1.18-1.03-2.46-1.95-3.82-2.74l-3.38-2.13c-0.93-0.5-1.8-1.11-2.59-1.81
								c-1.03-1.2-1.57-2.74-1.52-4.31c-0.06-1.88,0.66-3.69,1.99-5.02c1.4-1.37,3.31-2.09,5.27-2c1.11,0.04,2.2,0.27,3.23,0.68
								c0.71,0.28,1.44,0.5,2.19,0.66c0.37,0.04,0.74-0.08,1-0.35c0.19-0.24,0.55-0.12,0.65-0.55h0.81l0.67,8.04h-0.96
								c-0.63-2.56-1.67-4.34-3.1-5.36c-1.2-0.94-2.67-1.47-4.2-1.52c-1.03-0.02-2.04,0.33-2.84,0.98c-0.81,0.64-1.25,1.64-1.2,2.67
								c-0.02,0.96,0.31,1.89,0.92,2.63c0.84,0.91,1.81,1.7,2.88,2.32l3.47,2.16c1.87,0.87,3.55,2.11,4.94,3.63
								c0.86,1.24,1.29,2.72,1.22,4.22c-0.02,2.08-0.93,4.04-2.51,5.4c-1.65,1.49-3.88,2.17-6.08,1.84c-1.3-0.1-2.59-0.33-3.84-0.69
								c-0.74-0.3-1.5-0.54-2.27-0.71c-0.37-0.04-0.74,0.12-0.95,0.43c-0.11,0.3-0.18,0.61-0.2,0.93h-0.86v-9.52H150.89z
								 M87.7,68.45V46.2c-0.19-0.96-0.79-1.56-2.49-1.56l-0.29,0.01l-0.06-0.89h10.31v1.13c-0.21-0.05-0.42-0.07-0.64-0.07
								c-1.25-0.12-2.36,0.79-2.5,2.04v20.9c0.15,1.25,1.27,2.15,2.53,2.04c0.18,0,0.35-0.02,0.53-0.04l0.08,0.92h-7.06
								c-12.59-1.15-15.96-13.6-15.92-13.6c3.93,0.09,6.66-2.6,6.66-5.76c0-3.9-2.63-5.45-5.57-5.71c-0.09-0.03-1.23,0-1.23,0
								c-0.56-0.01-0.98,0.02-1.23,0.01v21.8c0.04,1.28,1.36,2.21,2.98,2.21l0.34-0.02v1.07H63.38V69.5l0.39-0.03
								c1.46,0,2.71-0.9,2.74-2.02V46.95c-0.09-1.15-1.08-2.01-2.23-1.93c-0.27,0-0.54,0.04-0.8,0.13l-0.11-1.23h12.29
								c4.58,0.01,7.96,2.61,7.96,7.2c0,3.38-1.77,5.94-6.04,7.03c0,0,3.74,8.35,10.03,10.29L87.7,68.45z M112.94,44.25l0.91,0.35
								c1.14,0.66,2.27,0.72,2.85,0.11c0.24-0.29,0.4-0.64,0.48-1.02l0.75-0.17l0.28,8.67h-0.9c-0.36-1.34-0.87-2.63-1.54-3.84
								c-1.97-3.03-4.28-3.01-7-3.01c-2.55-0.02-4.95,1.21-6.43,3.29c-1.79,2.6-2.73,5.7-2.69,8.86c-0.05,3.31,0.68,6.16,2.51,8.24
								c1.8,1.96,4.31,3.12,6.97,3.23c1.97,0.07,3.92-0.48,5.57-1.55c1.18-0.79,2.26-1.71,3.23-2.74c0.14-0.13,0.34-0.19,0.52-0.14
								c0.21,0.07,0.34,0.29,0.27,0.51c-0.01,0.02-0.02,0.05-0.03,0.07c-0.92,1.4-2.04,2.64-3.33,3.7
								c-2.08,1.44-4.56,2.18-7.09,2.09c-4.23,0-7.62-0.9-10.29-4.21c-2.14-2.58-3.28-5.85-3.19-9.21
								c-0.07-3.59,1.23-7.07,3.65-9.72c2.71-2.68,6.36-4.2,10.18-4.22C110.09,43.48,111.56,43.72,112.94,44.25 M145.72,45.83
								c-0.05-0.97,0.7-1.8,1.67-1.84c0.95-0.05,1.77,0.68,1.84,1.63c0.31,3.02-2.71,5.49-2.71,5.49c-0.17,0.19-0.43,0.26-0.67,0.18
								c-0.23-0.18-0.05-0.53-0.05-0.53c1.7-1.98,1.33-2.91,0.94-3.3c-0.14-0.06-0.26-0.14-0.38-0.24
								C145.96,46.87,145.72,46.36,145.72,45.83"/>
						</g>
					</g>
				</g>
			</g>
		</g>
	</g>
</g>
</svg>
