<svg xmlns="http://www.w3.org/2000/svg" viewBox="0 0 150.19 18.73"><defs><style>.cls-1{fill:#1e1e1e;}</style></defs><g id="Capa_2" data-name="Capa 2"><g id="Capa_1-2" data-name="Capa 1"><path class="cls-1" d="M80.4,18.73a4.82,4.82,0,0,1-1.93-.41,4.49,4.49,0,0,1-2.53-5.73A7.37,7.37,0,0,1,78,9.4l-.88-.51C71.16,5.48,65,2,58,1.19c-4.22-.44-10.61.27-13.14,3.69a8.52,8.52,0,0,1,2.86,2.59A3.54,3.54,0,0,1,48,10.74a2.13,2.13,0,0,1-1.86,1.13,2.68,2.68,0,0,1-2.28-1.07,5.73,5.73,0,0,1-.91-4.47,7.7,7.7,0,0,1,.39-1l-.42-.18C38.33,3.27,33.16,5.4,29.39,7A40.55,40.55,0,0,1,14,10.24h-.05c-2.49,0-10.86-.43-13.84-5.89a.53.53,0,0,1,.21-.73A.54.54,0,0,1,1,3.84C3.16,7.76,9.09,9.16,13.92,9.17h0A39.43,39.43,0,0,0,29,6c3.95-1.62,9.35-3.84,14.3-1.82.19.07.37.16.55.24C46.73.18,54.12-.3,58.07.12,65.36.9,71.88,4.65,77.64,8l.9.52.31.18a18,18,0,0,1,8.09-3.27c2.6-.39,6.89,0,8,2.66a3.76,3.76,0,0,1-.14,3.29,5.32,5.32,0,0,1-3.74,2.58c-3.37.67-6.46-.81-9.08-2.24-1-.56-2-1.14-3-1.71a6.34,6.34,0,0,0-2,2.92,3.39,3.39,0,0,0,1.9,4.44c1.43.6,3,.32,3.51-.64a.55.55,0,0,1,.74-.21.54.54,0,0,1,.2.74A3.26,3.26,0,0,1,80.4,18.73Zm-.53-9.48c.87.5,1.76,1,2.64,1.48,2.47,1.35,5.34,2.73,8.36,2.14a4.28,4.28,0,0,0,3-2A2.65,2.65,0,0,0,94,8.47c-.83-2-4.51-2.36-6.86-2A17.21,17.21,0,0,0,79.87,9.25ZM44.25,5.8a5.46,5.46,0,0,0-.31.83,4.61,4.61,0,0,0,.71,3.5,1.59,1.59,0,0,0,1.39.66,1,1,0,0,0,1-.54,2.52,2.52,0,0,0-.22-2.2A7.35,7.35,0,0,0,44.25,5.8Z"/><path class="cls-1" d="M69.8,18.73a3.27,3.27,0,0,1-2.94-1.51.55.55,0,0,1,.21-.74.54.54,0,0,1,.73.21c.54,1,2.08,1.24,3.51.64a3.39,3.39,0,0,0,1.91-4.44,6.44,6.44,0,0,0-2-2.92c-1,.57-2,1.15-3,1.71-2.63,1.43-5.72,2.91-9.09,2.24a5.35,5.35,0,0,1-3.74-2.58,3.76,3.76,0,0,1-.13-3.29c1.12-2.66,5.41-3.05,8-2.66a18,18,0,0,1,8.09,3.27l.3-.18L72.56,8C78.31,4.65,84.84.9,92.13.12c3.94-.42,11.33.06,14.23,4.25.18-.08.37-.17.56-.24,5-2,10.35.2,14.29,1.82a39.47,39.47,0,0,0,15,3.22h.05c4.83,0,10.76-1.41,12.9-5.33a.54.54,0,0,1,.73-.22.54.54,0,0,1,.22.73c-3,5.46-11.36,5.89-13.85,5.89A40.45,40.45,0,0,1,120.8,7C117,5.4,111.87,3.27,107.32,5.13l-.42.18a5.66,5.66,0,0,1,.39,1,5.68,5.68,0,0,1-.9,4.47,2.7,2.7,0,0,1-2.29,1.07,2.13,2.13,0,0,1-1.86-1.13,3.54,3.54,0,0,1,.29-3.27,8.33,8.33,0,0,1,2.86-2.59C102.85,1.46,96.46.75,92.24,1.19,85.18,2,79,5.48,73.09,8.89l-.88.51a7.28,7.28,0,0,1,2,3.19,4.49,4.49,0,0,1-2.52,5.73A4.89,4.89,0,0,1,69.8,18.73ZM61.48,6.34c-2.15,0-4.59.58-5.25,2.13a2.68,2.68,0,0,0,.09,2.36,4.32,4.32,0,0,0,3,2c3,.6,5.9-.79,8.36-2.14.88-.48,1.77-1,2.64-1.48A17.17,17.17,0,0,0,63.1,6.46,10.36,10.36,0,0,0,61.48,6.34Zm44.46-.54a7.4,7.4,0,0,0-2.51,2.25,2.52,2.52,0,0,0-.23,2.2,1,1,0,0,0,1,.54,1.63,1.63,0,0,0,1.39-.66,4.64,4.64,0,0,0,.7-3.5A4.57,4.57,0,0,0,105.94,5.8Z"/></g></g></svg>