<svg xmlns="http://www.w3.org/2000/svg" viewBox="0 0 130.72 36.74"><defs><style>.cls-1{font-size:10px;font-family:Montserrat-Bold, Montserrat;font-weight:700;}.cls-1,.cls-2{fill:#1e1e1e;}</style></defs><g id="Capa_2" data-name="Capa 2"><g id="Capa_1-2" data-name="Capa 1"><text class="cls-1" transform="translate(19.87 24.07) rotate(-28.48)">D</text><text class="cls-1" transform="matrix(0.94, -0.35, 0.35, 0.94, 28.31, 19.63)">U</text><text class="cls-1" transform="translate(36.98 16.51) rotate(-14.54)">L</text><text class="cls-1" transform="matrix(0.99, -0.16, 0.16, 0.99, 44.03, 14.72)">C</text><text class="cls-1" transform="translate(52.63 13.36) rotate(-4.73)">E</text><text class="cls-1" transform="translate(60.71 12.79) rotate(-1.56)"> </text><text class="cls-1" transform="matrix(1, 0.03, -0.03, 1, 64.98, 12.64)">B</text><text class="cls-1" transform="translate(74 12.95) rotate(6.4)">A</text><text class="cls-1" transform="translate(82.61 13.99) rotate(11.08)">T</text><text class="cls-1" transform="translate(90.01 15.53) rotate(15.09)">I</text><text class="cls-1" transform="translate(94.52 16.69) rotate(20.31)">D</text><text class="cls-1" transform="translate(103.43 20.06) rotate(28.4)">O</text><path class="cls-2" d="M12.9,36.74,9,28.16,0,24.67l.77-.82C15.12,8.47,38.06,0,65.36,0S115.6,8.47,130,23.85l.77.82-9,3.49-3.88,8.58L117,35.9c-11-11.76-29.33-18.24-51.68-18.24S24.66,24.14,13.69,35.9Zm52.46-20.6c22.26,0,40.67,6.34,52,17.89L120.56,27l7.49-2.89C114,9.52,91.74,1.53,65.36,1.53s-48.59,8-62.69,22.54L10.16,27,13.36,34C24.7,22.48,43.11,16.14,65.36,16.14Z"/><path class="cls-2" d="M116.76,23.74A1.8,1.8,0,1,1,115,22,1.8,1.8,0,0,1,116.76,23.74Z"/><path class="cls-2" d="M14.4,23.67a1.79,1.79,0,1,1,2.47.55A1.79,1.79,0,0,1,14.4,23.67Z"/></g></g></svg>