<svg xmlns="http://www.w3.org/2000/svg" viewBox="0 0 130.72 36.74"><defs><style>.cls-1{font-size:10px;font-family:Montserrat-Bold, Montserrat;font-weight:700;}.cls-1,.cls-2{fill:#1e1e1e;}</style></defs><g id="Capa_2" data-name="Capa 2"><g id="Capa_1-2" data-name="Capa 1"><text class="cls-1" transform="translate(34.16 17.36) rotate(-15.87)">N</text><text class="cls-1" transform="translate(42.28 15.09) rotate(-10.47)">A</text><text class="cls-1" transform="matrix(0.99, -0.1, 0.1, 0.99, 50.18, 13.66)">P</text><text class="cls-1" transform="matrix(1, -0.03, 0.03, 1, 57.84, 12.87)">O</text><text class="cls-1" transform="translate(66.68 12.67) rotate(2.11)">L</text><text class="cls-1" transform="matrix(1, 0.1, -0.1, 1, 73.12, 12.91)">E</text><text class="cls-1" transform="translate(80.15 13.58) rotate(10.24)">O</text><text class="cls-1" transform="translate(88.79 15.15) rotate(15.87)">N</text><path class="cls-2" d="M12.9,36.74,9,28.16,0,24.67l.77-.82C15.12,8.47,38.06,0,65.36,0S115.6,8.47,130,23.85l.77.82-9,3.49-3.88,8.58L117,35.9c-11-11.76-29.33-18.24-51.68-18.24S24.66,24.14,13.69,35.9Zm52.46-20.6c22.26,0,40.67,6.34,52,17.89L120.56,27l7.49-2.89C114,9.52,91.74,1.53,65.36,1.53s-48.59,8-62.69,22.54L10.16,27,13.36,34C24.7,22.48,43.11,16.14,65.36,16.14Z"/><path class="cls-2" d="M119.3,24.5a1.79,1.79,0,1,1-1.79-1.79A1.79,1.79,0,0,1,119.3,24.5Z"/><path class="cls-2" d="M15.46,24.5a1.79,1.79,0,1,1-1.79-1.79A1.79,1.79,0,0,1,15.46,24.5Z"/></g></g></svg>