<svg xmlns="http://www.w3.org/2000/svg" viewBox="0 0 130.72 36.74"><defs><style>.cls-1{font-size:10.7px;font-family:Montserrat-Bold, Montserrat;font-weight:700;}.cls-1,.cls-2{fill:#1e1e1e;}</style></defs><g id="Capa_2" data-name="Capa 2"><g id="Capa_1-2" data-name="Capa 1"><text class="cls-1" transform="translate(21.33 23.2) rotate(-27.14)">P</text><text class="cls-1" transform="translate(31.53 18.31) rotate(-17.83)">A</text><text class="cls-1" transform="translate(43.26 14.85) rotate(-9.56)">N</text><text class="cls-1" transform="translate(55.84 13.02) rotate(-2.66)">A</text><text class="cls-1" transform="translate(68.03 12.67) rotate(3.25)">C</text><text class="cls-1" transform="matrix(0.98, 0.18, -0.18, 0.98, 79.73, 13.51)">O</text><text class="cls-1" transform="translate(92.43 16.12) rotate(18.05)">T</text><text class="cls-1" transform="translate(102.11 19.48) rotate(26.99)">A</text><path class="cls-2" d="M12.9,36.74,9,28.16,0,24.67l.77-.82C15.12,8.47,38.06,0,65.36,0S115.6,8.47,130,23.85l.77.82-9,3.49-3.88,8.58L117,35.9c-11-11.76-29.33-18.24-51.68-18.24S24.66,24.14,13.69,35.9Zm52.46-20.6c22.26,0,40.67,6.34,52,17.89L120.56,27l7.49-2.89C114,9.52,91.74,1.53,65.36,1.53s-48.59,8-62.69,22.54L10.16,27,13.36,34C24.7,22.48,43.11,16.14,65.36,16.14Z"/><path class="cls-2" d="M116.37,22.44a1.79,1.79,0,1,1-1.79-1.79A1.79,1.79,0,0,1,116.37,22.44Z"/><path class="cls-2" d="M19.94,22.44a1.79,1.79,0,1,1-1.79-1.79A1.79,1.79,0,0,1,19.94,22.44Z"/></g></g></svg>