<svg xmlns="http://www.w3.org/2000/svg" viewBox="0 0 130.72 36.74"><defs><style>.cls-1{font-size:10px;font-family:Montserrat-Bold, Montserrat;font-weight:700;}.cls-1,.cls-2{fill:#1e1e1e;}</style></defs><g id="Capa_2" data-name="Capa 2"><g id="Capa_1-2" data-name="Capa 1"><text class="cls-1" transform="matrix(0.83, -0.55, 0.55, 0.83, 16.42, 26.52)">T</text><text class="cls-1" transform="matrix(0.9, -0.45, 0.45, 0.9, 21.73, 22.94)">O</text><text class="cls-1" transform="translate(29.59 19.1) rotate(-19.72)">R</text><text class="cls-1" transform="matrix(0.97, -0.25, 0.25, 0.97, 36.79, 16.57)">T</text><text class="cls-1" transform="matrix(0.98, -0.18, 0.18, 0.98, 42.78, 14.98)">A</text><text class="cls-1" transform="translate(50.73 13.64) rotate(-6.84)"> </text><text class="cls-1" transform="translate(53.97 13.21) rotate(-3.85)">R</text><text class="cls-1" transform="translate(61.69 12.72) rotate(-0.34)">E</text><text class="cls-1" transform="translate(68.8 12.65) rotate(4.1)">M</text><text class="cls-1" transform="matrix(0.99, 0.16, -0.16, 0.99, 78.66, 13.39)">O</text><text class="cls-1" transform="translate(87.21 14.86) rotate(13.86)">J</text><text class="cls-1" transform="matrix(0.95, 0.32, -0.32, 0.95, 92.68, 16.16)">A</text><text class="cls-1" transform="translate(100.26 18.71) rotate(25.27)">D</text><text class="cls-1" transform="translate(107.9 22.34) rotate(32.78)">A</text><path class="cls-2" d="M12.9,36.74,9,28.16,0,24.67l.77-.82C15.12,8.47,38.06,0,65.36,0S115.6,8.47,130,23.85l.77.82-9,3.49-3.88,8.58L117,35.9c-11-11.76-29.33-18.24-51.68-18.24S24.66,24.14,13.69,35.9Zm52.46-20.6c22.26,0,40.67,6.34,52,17.89L120.56,27l7.49-2.89C114,9.52,91.74,1.53,65.36,1.53s-48.59,8-62.69,22.54L10.16,27,13.36,34C24.7,22.48,43.11,16.14,65.36,16.14Z"/><path class="cls-2" d="M119.3,24.5a1.79,1.79,0,1,1-1.79-1.79A1.79,1.79,0,0,1,119.3,24.5Z"/><path class="cls-2" d="M15.46,24.5a1.79,1.79,0,1,1-1.79-1.79A1.79,1.79,0,0,1,15.46,24.5Z"/></g></g></svg>